<mxfile host="app.diagrams.net" modified="2023-10-09T10:45:05.108Z" agent="Mozilla/5.0 (Windows NT 10.0; Win64; x64) AppleWebKit/537.36 (KHTML, like Gecko) Chrome/116.0.5845.967 YaBrowser/23.9.1.967 Yowser/2.5 Safari/537.36" etag="z1Hxi1EQi4sTRGqcAMA8" version="22.0.4" type="device">
  <diagram name="Страница — 1" id="HjkG9JvWGIo-SRKBQGUM">
    <mxGraphModel dx="1386" dy="785" grid="1" gridSize="10" guides="1" tooltips="1" connect="1" arrows="1" fold="1" page="1" pageScale="1" pageWidth="827" pageHeight="1169" math="0" shadow="0">
      <root>
        <mxCell id="0" />
        <mxCell id="1" parent="0" />
        <mxCell id="PbDYM0hrfJ8_ZjSdwshX-2" value="" style="rounded=0;whiteSpace=wrap;html=1;" vertex="1" parent="1">
          <mxGeometry width="690" height="440" as="geometry" />
        </mxCell>
        <mxCell id="PbDYM0hrfJ8_ZjSdwshX-3" value="" style="rounded=0;whiteSpace=wrap;html=1;align=left;fillColor=#dae8fc;strokeColor=#6c8ebf;" vertex="1" parent="1">
          <mxGeometry width="690" height="60" as="geometry" />
        </mxCell>
        <mxCell id="PbDYM0hrfJ8_ZjSdwshX-4" value="MessageMe" style="text;html=1;align=center;verticalAlign=middle;resizable=0;points=[];autosize=1;strokeColor=none;fillColor=none;" vertex="1" parent="1">
          <mxGeometry x="20" y="15" width="90" height="30" as="geometry" />
        </mxCell>
        <mxCell id="PbDYM0hrfJ8_ZjSdwshX-5" value="Authorization" style="text;html=1;align=center;verticalAlign=middle;resizable=0;points=[];autosize=1;strokeColor=none;fillColor=none;fontSize=19;" vertex="1" parent="1">
          <mxGeometry x="152.5" y="90" width="130" height="40" as="geometry" />
        </mxCell>
        <mxCell id="PbDYM0hrfJ8_ZjSdwshX-6" value="" style="rounded=1;whiteSpace=wrap;html=1;" vertex="1" parent="1">
          <mxGeometry x="152.5" y="130" width="385" height="40" as="geometry" />
        </mxCell>
        <mxCell id="PbDYM0hrfJ8_ZjSdwshX-7" value="Username" style="text;html=1;align=center;verticalAlign=middle;resizable=0;points=[];autosize=1;strokeColor=none;fillColor=none;" vertex="1" parent="1">
          <mxGeometry x="157.5" y="135" width="80" height="30" as="geometry" />
        </mxCell>
        <mxCell id="PbDYM0hrfJ8_ZjSdwshX-8" value="" style="rounded=1;whiteSpace=wrap;html=1;" vertex="1" parent="1">
          <mxGeometry x="152.5" y="180" width="385" height="40" as="geometry" />
        </mxCell>
        <mxCell id="PbDYM0hrfJ8_ZjSdwshX-9" value="Password" style="text;html=1;align=center;verticalAlign=middle;resizable=0;points=[];autosize=1;strokeColor=none;fillColor=none;" vertex="1" parent="1">
          <mxGeometry x="157.5" y="185" width="80" height="30" as="geometry" />
        </mxCell>
        <mxCell id="PbDYM0hrfJ8_ZjSdwshX-10" value="Registration" style="rounded=1;whiteSpace=wrap;html=1;fillColor=#f5f5f5;fontColor=#333333;strokeColor=#666666;" vertex="1" parent="1">
          <mxGeometry x="152.5" y="230" width="90" height="30" as="geometry" />
        </mxCell>
        <mxCell id="PbDYM0hrfJ8_ZjSdwshX-11" value="Login" style="rounded=1;whiteSpace=wrap;html=1;fillColor=#dae8fc;strokeColor=#6c8ebf;" vertex="1" parent="1">
          <mxGeometry x="250" y="230" width="90" height="30" as="geometry" />
        </mxCell>
      </root>
    </mxGraphModel>
  </diagram>
</mxfile>
